<svg width="24" height="24" viewBox="0 0 24 24" fill="none" xmlns="http://www.w3.org/2000/svg">
<path d="M21.9848 3.43959L19.4848 19.6547C19.4262 20.0349 19.1967 20.3664 18.861 20.5551C18.6717 20.6613 18.4598 20.7151 18.2485 20.7151C18.0849 20.7151 17.9235 20.6832 17.7684 20.6185L12.9792 18.6224L10.9925 21.6025C10.8401 21.8633 10.5862 22 10.3128 22C9.86357 22 9.50028 21.6367 9.50028 21.1875V17.4304C9.50028 17.1525 9.59294 16.8824 9.76365 16.6632L18.2504 5.74978L6.77759 16.0741L2.76933 14.4022C2.3298 14.2186 2.03192 13.8046 2.00262 13.2929C1.97333 12.7811 2.21626 12.3663 2.62998 12.1299L20.1302 2.16496C20.5478 1.92633 21.063 1.94828 21.4584 2.21989C21.8537 2.49149 22.059 2.96537 21.9848 3.43959Z" fill="black"/>
</svg>
