<svg width="24" height="24" viewBox="0 0 24 24" fill="none" xmlns="http://www.w3.org/2000/svg">
<path fill-rule="evenodd" clip-rule="evenodd" d="M4 4.49027C4 2.01036 6.01036 0 8.49028 0L16.1951 3.3961e-06C18.675 3.3961e-06 20.6854 2.01037 20.6854 4.49027C20.6854 6.06055 19.8793 7.44257 18.6584 8.24515C19.8793 9.04776 20.6854 10.4298 20.6854 12.0001C20.6854 14.48 18.675 16.4904 16.1951 16.4904H16.0975C14.935 16.4904 13.8756 16.0485 13.0781 15.3236V19.461C13.0781 21.9739 11.0152 24 8.51452 24C6.04077 24 4.00002 21.9958 4.00002 19.5097C4.00002 17.9394 4.80604 16.5575 6.02691 15.7549C4.80603 14.9524 4.00002 13.5704 4.00002 12.0001C4.00002 10.4298 4.80604 9.04776 6.02694 8.24515C4.80604 7.44257 4 6.06055 4 4.49027ZM8.49028 7.50972C6.82268 7.50972 5.47083 6.15787 5.47083 4.49027C5.47083 2.82268 6.82268 1.47083 8.49028 1.47083L11.6073 1.47084V7.50972L8.49028 7.50972ZM11.6073 8.98055L8.49028 8.98055C6.82271 8.98055 5.47085 10.3325 5.47085 12.0001C5.47085 13.6677 6.8227 15.0195 8.49029 15.0195H11.6073V12.0016C11.6073 12.0011 11.6073 12.0006 11.6073 12.0001C11.6073 11.9996 11.6073 11.9991 11.6073 11.9986V8.98055ZM11.6073 16.4904H8.49029C6.82267 16.4904 5.47085 17.8421 5.47085 19.5097C5.47085 21.1712 6.84076 22.5292 8.51452 22.5292C10.2152 22.5292 11.6073 21.1493 11.6073 19.461V16.4904ZM16.1951 8.98055L16.0975 8.98066C14.4299 8.98066 13.0781 10.3325 13.0781 12.0001C13.0781 13.6677 14.43 15.0195 16.0975 15.0195H16.1951C17.8627 15.0195 19.2145 13.6677 19.2145 12.0001C19.2145 10.3326 17.8628 8.98072 16.1954 8.98055C16.1953 8.98055 16.1952 8.98055 16.1951 8.98055ZM13.0781 7.50972V1.47084H16.1951C17.8627 1.47084 19.2145 2.82269 19.2145 4.49027C19.2145 6.15787 17.8627 7.50972 16.1951 7.50972H13.0781Z" fill="black"/>
</svg>
