<?xml version="1.0" encoding="UTF-8"?>
<svg width="20px" height="20px" viewBox="0 0 20 20" version="1.1" xmlns="http://www.w3.org/2000/svg" xmlns:xlink="http://www.w3.org/1999/xlink">
    <!-- Generator: Sketch 62 (91390) - https://sketch.com -->
    <title>Social / Instagram</title>
    <desc>Created with Sketch.</desc>
    <g id="Symboles" stroke="none" stroke-width="1" fill="none" fill-rule="evenodd">
        <g id="Footer" transform="translate(-1135.000000, -318.000000)" fill="#131415">
            <g id="Group-4" transform="translate(80.000000, 59.000000)">
                <g id="Col-04" transform="translate(975.000000, 226.000000)">
                    <g id="Social-/-Instagram" transform="translate(80.000000, 33.000000)">
                        <g id="Group-7">
                            <path d="M10,0 C7.284,0 6.944,0.012 5.877,0.06 C4.813,0.109 4.086,0.278 3.45,0.525 C2.792,0.781 2.234,1.123 1.678,1.678 C1.123,2.234 0.781,2.792 0.525,3.45 C0.278,4.086 0.109,4.812 0.06,5.877 C0.012,6.944 0,7.284 0,10 C0,12.716 0.012,13.057 0.06,14.123 C0.109,15.188 0.278,15.914 0.525,16.551 C0.781,17.208 1.123,17.766 1.678,18.321 C2.234,18.878 2.792,19.22 3.45,19.475 C4.086,19.723 4.813,19.892 5.877,19.939 C6.944,19.988 7.284,20 10,20 C12.716,20 13.057,19.988 14.123,19.939 C15.187,19.892 15.914,19.723 16.551,19.475 C17.208,19.22 17.766,18.878 18.321,18.321 C18.878,17.766 19.22,17.208 19.475,16.551 C19.723,15.914 19.892,15.188 19.939,14.123 C19.988,13.057 20,12.716 20,10 C20,7.284 19.988,6.944 19.939,5.877 C19.892,4.812 19.723,4.086 19.475,3.45 C19.22,2.792 18.878,2.234 18.321,1.678 C17.766,1.123 17.208,0.781 16.551,0.525 C15.914,0.278 15.187,0.109 14.123,0.06 C13.057,0.012 12.716,0 10,0 M10,1.802 C12.67,1.802 12.986,1.812 14.041,1.86 C15.016,1.905 15.545,2.067 15.897,2.205 C16.364,2.386 16.697,2.603 17.048,2.953 C17.397,3.302 17.614,3.636 17.796,4.102 C17.933,4.455 18.096,4.984 18.14,5.959 C18.188,7.014 18.198,7.33 18.198,10 C18.198,12.67 18.188,12.986 18.14,14.041 C18.096,15.016 17.933,15.545 17.796,15.897 C17.614,16.364 17.397,16.697 17.048,17.048 C16.697,17.397 16.364,17.614 15.897,17.796 C15.545,17.933 15.016,18.096 14.041,18.14 C12.986,18.188 12.67,18.198 10,18.198 C7.33,18.198 7.014,18.188 5.959,18.14 C4.984,18.096 4.455,17.933 4.102,17.796 C3.636,17.614 3.302,17.397 2.953,17.048 C2.603,16.697 2.386,16.364 2.205,15.897 C2.067,15.545 1.905,15.016 1.86,14.041 C1.812,12.986 1.802,12.67 1.802,10 C1.802,7.33 1.812,7.014 1.86,5.959 C1.905,4.984 2.067,4.455 2.205,4.102 C2.386,3.636 2.603,3.302 2.953,2.953 C3.302,2.603 3.636,2.386 4.102,2.205 C4.455,2.067 4.984,1.905 5.959,1.86 C7.014,1.812 7.33,1.802 10,1.802" id="Fill-1"></path>
                            <path d="M10,13.333 C8.159,13.333 6.667,11.841 6.667,10 C6.667,8.159 8.159,6.666 10,6.666 C11.841,6.666 13.333,8.159 13.333,10 C13.333,11.841 11.841,13.333 10,13.333 M10,4.865 C7.164,4.865 4.865,7.164 4.865,10 C4.865,12.836 7.164,15.135 10,15.135 C12.836,15.135 15.135,12.836 15.135,10 C15.135,7.164 12.836,4.865 10,4.865" id="Fill-3"></path>
                            <path d="M16.5381,4.6621 C16.5381,5.3251 16.0011,5.8621 15.3381,5.8621 C14.6751,5.8621 14.1381,5.3251 14.1381,4.6621 C14.1381,3.9991 14.6751,3.4621 15.3381,3.4621 C16.0011,3.4621 16.5381,3.9991 16.5381,4.6621" id="Fill-5"></path>
                        </g>
                    </g>
                </g>
            </g>
        </g>
    </g>
</svg>