<?xml version="1.0" encoding="UTF-8"?>
<svg width="20px" height="20px" viewBox="0 0 20 20" version="1.1" xmlns="http://www.w3.org/2000/svg" xmlns:xlink="http://www.w3.org/1999/xlink">
    <!-- Generator: Sketch 62 (91390) - https://sketch.com -->
    <title>Social / Instagram</title>
    <desc>Created with Sketch.</desc>
    <g id="Symboles" stroke="none" stroke-width="1" fill="none" fill-rule="evenodd">
        <g id="Footer" transform="translate(-1175.000000, -318.000000)" fill="#000000">
            <g id="Group-4" transform="translate(80.000000, 59.000000)">
                <g id="Col-04" transform="translate(975.000000, 226.000000)">
                    <g id="Social-/-Linkedin" transform="translate(120.000000, 33.000000)">
                        <g id="iconmonstr-linkedin-3">
                            <path d="M15.8333333,0 L4.16666667,0 C1.86583333,0 0,1.86583333 0,4.16666667 L0,15.8333333 C0,18.1341667 1.86583333,20 4.16666667,20 L15.8333333,20 C18.135,20 20,18.1341667 20,15.8333333 L20,4.16666667 C20,1.86583333 18.135,0 15.8333333,0 Z M6.66666667,15.8333333 L4.16666667,15.8333333 L4.16666667,6.66666667 L6.66666667,6.66666667 L6.66666667,15.8333333 Z M5.41666667,5.61 C4.61166667,5.61 3.95833333,4.95166667 3.95833333,4.14 C3.95833333,3.32833333 4.61166667,2.67 5.41666667,2.67 C6.22166667,2.67 6.875,3.32833333 6.875,4.14 C6.875,4.95166667 6.2225,5.61 5.41666667,5.61 Z M16.6666667,15.8333333 L14.1666667,15.8333333 L14.1666667,11.1633333 C14.1666667,8.35666667 10.8333333,8.56916667 10.8333333,11.1633333 L10.8333333,15.8333333 L8.33333333,15.8333333 L8.33333333,6.66666667 L10.8333333,6.66666667 L10.8333333,8.1375 C11.9966667,5.9825 16.6666667,5.82333333 16.6666667,10.2008333 L16.6666667,15.8333333 Z" id="Shape" fill-rule="nonzero"></path>
                        </g>
                    </g>
                </g>
            </g>
        </g>
    </g>
</svg>