<svg width="24" height="25" viewBox="0 0 24 25" fill="none" xmlns="http://www.w3.org/2000/svg">
<g clip-path="url(#clip0_6125_61498)">
<path fill-rule="evenodd" clip-rule="evenodd" d="M23.9625 12.6303C23.9625 6.0282 18.6024 0.668091 12.0003 0.668091H11.9997C5.39758 0.668091 0.0374756 6.0282 0.0374756 12.6303C0.0374756 19.2324 5.39758 24.5925 11.9997 24.5925H12.0003C18.6024 24.5925 23.9625 19.2324 23.9625 12.6303ZM13.2011 12.6304C13.2011 15.5709 10.8335 17.9547 7.91313 17.9547C4.99273 17.9547 2.62498 15.5704 2.62498 12.6304C2.62498 9.6904 4.99254 7.30597 7.91313 7.30597C10.8337 7.30597 13.2011 9.68989 13.2011 12.6304ZM19.0022 12.6304C19.0022 15.3983 17.8184 17.6429 16.3581 17.6429C14.8978 17.6429 13.7141 15.3983 13.7141 12.6304C13.7141 9.86253 14.8976 7.61783 16.3579 7.61783C17.8182 7.61783 19.002 9.86183 19.002 12.6304H19.0022ZM21.375 12.6304C21.375 15.1097 20.9587 17.1208 20.4451 17.1208C19.9314 17.1208 19.5153 15.1103 19.5153 12.6304C19.5153 10.1505 19.9316 8.13997 20.4451 8.13997C20.9585 8.13997 21.375 10.1503 21.375 12.6304Z" fill="black"/>
</g>
<defs>
<clipPath id="clip0_6125_61498">
<rect width="24" height="24" fill="white" transform="translate(0 0.63031)"/>
</clipPath>
</defs>
</svg>
