<?xml version="1.0" encoding="UTF-8"?>
<svg width="20px" height="21px" viewBox="0 0 20 21" version="1.1" xmlns="http://www.w3.org/2000/svg" xmlns:xlink="http://www.w3.org/1999/xlink">
    <!-- Generator: Sketch 62 (91390) - https://sketch.com -->
    <title>Social / Pinterest</title>
    <desc>Created with Sketch.</desc>
    <g id="Symboles" stroke="none" stroke-width="1" fill="none" fill-rule="evenodd">
        <g id="Footer" transform="translate(-1095.000000, -317.000000)">
            <g id="Group-4" transform="translate(80.000000, 59.000000)">
                <g id="Col-04" transform="translate(975.000000, 226.000000)">
                    <g id="Social-/-Pinterest" transform="translate(40.000000, 32.000000)">
                        <g id="Group-3">
                            <polygon id="Clip-2" points="0.0004 0 19.9994482 0 19.9994482 20.0329 0.0004 20.0329"></polygon>
                            <path d="M10.0084,0 C4.4814,0 0.0004,4.481 0.0004,10.008 C0.0004,14.25 2.6354,17.875 6.3594,19.333 C6.2684,18.542 6.1944,17.323 6.3924,16.458 C6.5734,15.675 7.5614,11.483 7.5614,11.483 C7.5614,11.483 7.2654,10.881 7.2654,10 C7.2654,8.608 8.0724,7.57 9.0774,7.57 C9.9344,7.57 10.3454,8.212 10.3454,8.979 C10.3454,9.835 9.8024,11.121 9.5134,12.315 C9.2754,13.311 10.0164,14.126 10.9964,14.126 C12.7764,14.126 14.1434,12.249 14.1434,9.547 C14.1434,7.15 12.4214,5.478 9.9584,5.478 C7.1084,5.478 5.4364,7.611 5.4364,9.819 C5.4364,10.675 5.7664,11.598 6.1774,12.1 C6.2604,12.2 6.2684,12.29 6.2434,12.389 C6.1694,12.702 5.9964,13.385 5.9634,13.526 C5.9224,13.707 5.8154,13.748 5.6264,13.658 C4.3744,13.073 3.5914,11.252 3.5914,9.778 C3.5914,6.623 5.8814,3.723 10.2054,3.723 C13.6734,3.723 16.3754,6.194 16.3754,9.506 C16.3754,12.958 14.2004,15.733 11.1864,15.733 C10.1734,15.733 9.2174,15.206 8.8964,14.58 C8.8964,14.58 8.3934,16.491 8.2704,16.96 C8.0484,17.833 7.4384,18.921 7.0264,19.588 C7.9654,19.876 8.9534,20.033 9.9914,20.033 C15.5194,20.033 19.9994482,15.552 19.9994482,10.025 C20.0164,4.481 15.5354,0 10.0084,0" id="Fill-1" fill="#131415"></path>
                        </g>
                    </g>
                </g>
            </g>
        </g>
    </g>
</svg>