<svg width="24" height="24" viewBox="0 0 24 24" fill="none" xmlns="http://www.w3.org/2000/svg">
<g clip-path="url(#clip0_6125_61413)">
<path d="M23.9535 4.56946C23.0685 4.95846 22.1235 5.22346 21.1285 5.34446C22.1425 4.73346 22.9225 3.77046 23.2915 2.62146C22.3405 3.17646 21.2865 3.58046 20.1645 3.80546C19.2685 2.84646 17.9915 2.24646 16.5735 2.24646C13.8565 2.24646 11.6535 4.44946 11.6535 7.16346C11.6535 7.55346 11.6985 7.92846 11.7805 8.28746C7.69051 8.09446 4.06551 6.13046 1.63951 3.16146C1.21251 3.88346 0.973512 4.72246 0.973512 5.63646C0.973512 7.34646 1.84351 8.84946 3.16151 9.73246C2.35451 9.70646 1.59551 9.48446 0.933512 9.11646V9.17746C0.933512 11.5625 2.62651 13.5515 4.87951 14.0045C4.46651 14.1155 4.03051 14.1755 3.58351 14.1755C3.26951 14.1755 2.96851 14.1455 2.66751 14.0895C3.29851 16.0425 5.11251 17.4665 7.27151 17.5065C5.59151 18.8255 3.46251 19.6115 1.16951 19.6115C0.779512 19.6115 0.390512 19.5885 -0.000488281 19.5445C2.18851 20.9385 4.76751 21.7535 7.55651 21.7535C16.6105 21.7535 21.5555 14.2575 21.5555 7.76746C21.5555 7.55846 21.5555 7.34746 21.5405 7.13746C22.5015 6.44846 23.3405 5.57746 24.0005 4.58946L23.9535 4.56946Z" fill="black"/>
</g>
<defs>
<clipPath id="clip0_6125_61413">
<rect width="24" height="24" fill="white"/>
</clipPath>
</defs>
</svg>
